<svg width="57" height="57" viewBox="0 0 57 57" fill="none" xmlns="http://www.w3.org/2000/svg">
<path fill-rule="evenodd" clip-rule="evenodd" d="M6 23C6 13.6112 13.6112 6 23 6C32.3888 6 40 13.6112 40 23C40 32.3888 32.3888 40 23 40C13.6112 40 6 32.3888 6 23ZM23 0C10.2975 0 0 10.2975 0 23C0 35.7025 10.2975 46 23 46C27.9067 46 32.4545 44.4635 36.1886 41.8455L50.1716 55.8284C51.7337 57.3905 54.2663 57.3905 55.8284 55.8284C57.3905 54.2663 57.3905 51.7337 55.8284 50.1716L41.8455 36.1886C44.4635 32.4545 46 27.9067 46 23C46 10.2975 35.7025 0 23 0Z" fill="black"/>
</svg>
